<svg width="530" height="530" viewBox="0 0 530 530" fill="none" xmlns="http://www.w3.org/2000/svg">
<rect width="530" height="530" rx="256" fill="white"/>
<mask id="mask0_283_21" style="mask-type:alpha" maskUnits="userSpaceOnUse" x="9" y="9" width="512" height="512">
<path d="M265 9C123.616 9 9 123.612 9 265C9 406.388 123.616 521 265 521C406.384 521 521 406.388 521 265C521 123.612 406.385 9 265 9ZM216.678 387.794C216.678 370.182 230.959 355.901 248.571 355.901C266.17 355.901 280.451 370.182 280.451 387.794C280.451 405.389 266.17 419.678 248.571 419.678C230.959 419.678 216.678 405.389 216.678 387.794ZM352.625 227.852C349.029 237.645 343.823 246.141 337.93 253.208C326.083 267.356 312.042 275.926 300.488 282.249C292.769 286.423 285.955 289.638 281.719 292.018C278.814 293.622 277.24 294.968 276.463 295.844C275.695 296.77 275.434 297.15 274.967 298.67C274.694 299.679 274.409 301.282 274.409 303.761C274.409 310.629 274.409 316.273 274.409 316.273C274.409 322.745 269.161 328.001 262.686 328.001H234.434C227.959 328.001 222.702 322.745 222.702 316.273C222.702 316.273 222.702 310.628 222.702 303.761C222.702 297.323 223.454 291.017 225.107 284.984C226.743 278.976 229.322 273.266 232.615 268.29C239.214 258.207 248.157 251.488 256.599 246.81C264 242.736 271.322 239.355 278.115 235.529C284.904 231.736 290.958 227.619 295.417 223.157C298.405 220.182 300.727 217.107 302.504 213.637C304.839 209.009 306.459 203.57 306.496 195.248C306.508 192.785 305.798 189.546 303.864 185.843C301.938 182.157 298.798 178.149 294.6 174.553C286.15 167.305 273.757 162.008 259.546 162.032C243.261 162.09 232.36 165.908 223.959 170.652C215.599 175.428 212.93 180.247 212.93 180.247C208.662 183.965 202.327 184.097 197.905 180.561L176.195 163.164C173.476 160.991 171.873 157.726 171.799 154.238C171.736 150.759 173.224 147.428 175.86 145.139C175.86 145.139 182.625 134.709 198.311 125.759C213.931 116.767 234.633 110.271 259.547 110.33C279.762 110.33 298.386 115.892 313.815 124.991C329.249 134.139 341.712 146.735 349.666 161.867C354.947 171.941 358.191 183.297 358.199 195.247C358.211 207.042 356.248 218.058 352.625 227.852Z" fill="white"/>
</mask>
<g mask="url(#mask0_283_21)">
<rect x="9" y="9" width="512" height="512" rx="256" fill="#363636"/>
</g>
</svg>
