<svg width="600" height="686" viewBox="0 0 600 686" fill="none" xmlns="http://www.w3.org/2000/svg">
<path fill-rule="evenodd" clip-rule="evenodd" d="M299.949 135.795C245.917 135.816 193.346 153.342 150.109 185.747C106.873 218.153 75.2995 263.694 60.1173 315.549C44.9351 367.405 46.9616 422.783 65.8934 473.39C84.8252 523.997 119.643 567.109 165.132 596.267C210.621 625.426 264.333 639.062 318.222 635.134C372.111 631.205 423.277 609.923 464.057 574.476C504.836 539.028 533.033 491.323 544.426 438.505C555.818 385.688 549.791 330.601 527.249 281.495C524.795 275.525 524.746 268.837 527.111 262.832C529.477 256.826 534.073 251.968 539.939 249.274C545.805 246.58 552.485 246.259 558.582 248.379C564.679 250.498 569.719 254.894 572.649 260.645C599.699 319.575 606.927 385.682 593.253 449.065C579.578 512.447 545.736 569.693 496.795 612.228C447.855 654.762 386.451 680.296 321.781 685.004C257.111 689.711 192.657 673.34 138.072 638.341C83.488 603.343 41.712 551.602 19.0021 490.868C-3.70784 430.134 -6.1292 363.677 12.1007 301.451C30.3306 239.225 68.2305 184.581 120.123 145.703C172.016 106.825 235.108 85.8064 299.949 85.7954V135.795Z" fill="white"/>
<path d="M299.949 209.095V12.4953C299.95 10.1201 300.627 7.79438 301.902 5.79038C303.177 3.78637 304.997 2.18708 307.148 1.17978C309.299 0.172481 311.692 -0.201129 314.048 0.102697C316.404 0.406522 318.624 1.37521 320.449 2.89532L438.449 101.195C444.449 106.195 444.449 115.395 438.449 120.395L320.449 218.695C318.624 220.215 316.404 221.184 314.048 221.488C311.692 221.792 309.299 221.418 307.148 220.411C304.997 219.404 303.177 217.804 301.902 215.8C300.627 213.796 299.95 211.471 299.949 209.095V209.095Z" fill="white"/>
</svg>
