<svg width="885" height="885" viewBox="0 0 885 885" fill="none" xmlns="http://www.w3.org/2000/svg">
<path d="M876.133 9.14658C880.027 13.0465 882.69 18.0045 883.79 23.4047C884.89 28.8049 884.379 34.4092 882.321 39.5216L555.002 857.79C552.118 864.997 547.301 871.267 541.082 875.912C534.863 880.557 527.483 883.397 519.755 884.118C512.026 884.839 504.249 883.414 497.278 879.999C490.307 876.585 484.414 871.314 480.246 864.765L301.483 583.797L20.5146 405.034C13.9512 400.871 8.6656 394.975 5.24101 387.998C1.81641 381.02 0.385954 373.232 1.10748 365.493C1.82901 357.754 4.67447 350.365 9.32988 344.141C13.9853 337.917 20.2697 333.1 27.4896 330.222L845.758 3.01533C850.871 0.957273 856.475 0.446539 861.875 1.54657C867.275 2.64661 872.233 5.30893 876.133 9.20283V9.14658ZM357.621 567.372L512.927 811.384L779.158 145.834L357.621 567.372ZM739.39 106.065L73.8396 372.297L317.908 527.547L739.446 106.065H739.39Z" fill="white"/>
</svg>
